<?xml version="1.0" encoding="utf-8" standalone="no"?>
<!DOCTYPE svg PUBLIC "-//W3C//DTD SVG 1.1//EN"
  "http://www.w3.org/Graphics/SVG/1.1/DTD/svg11.dtd">
<!-- Created with matplotlib (https://matplotlib.org/) -->
<svg height="332.28pt" version="1.1" viewBox="0 0 628.480937 332.28" width="628.480937pt" xmlns="http://www.w3.org/2000/svg" xmlns:xlink="http://www.w3.org/1999/xlink">
 <defs>
  <style type="text/css">
*{stroke-linecap:butt;stroke-linejoin:round;}
  </style>
 </defs>
 <g id="figure_1">
  <g id="patch_1">
   <path d="M 0 332.28 
L 628.480937 332.28 
L 628.480937 0 
L 0 0 
z
" style="fill:#ffffff;"/>
  </g>
  <g id="axes_1">
   <g id="patch_2">
    <path d="M 231.029375 213.48 
C 231.029375 205.036856 229.831682 196.63624 227.472132 188.529502 
C 225.112582 180.422764 221.614944 172.69157 217.08387 165.567243 
L 141.749375 213.48 
L 231.029375 213.48 
z
" style="fill:#ff0000;"/>
   </g>
   <g id="patch_3">
    <path d="M 217.08387 165.567243 
C 211.362412 156.571243 204.075565 148.672381 195.569168 142.24554 
C 187.06277 135.818699 177.473558 130.967187 167.256639 127.921261 
C 157.039721 124.875334 146.359329 123.683954 135.722361 124.403665 
C 125.085392 125.123375 114.662831 127.742607 104.949337 132.137049 
C 95.235844 136.531492 86.387557 142.630507 78.824423 150.144633 
C 71.261288 157.658758 65.104879 166.467208 60.647381 176.151928 
C 56.189884 185.836647 53.50295 196.241961 52.714104 206.874026 
C 51.925258 217.506091 53.047179 228.194002 56.026621 238.430506 
C 59.006062 248.66701 63.795132 258.28756 70.166536 266.835559 
C 76.537941 275.383557 84.389265 282.721601 93.347879 288.501421 
C 102.306493 294.281241 112.228392 298.40993 122.642678 300.691539 
C 133.056963 302.973148 143.796231 303.371 154.35079 301.866214 
C 164.905348 300.361427 175.105538 296.978191 184.467252 291.877075 
C 193.828967 286.775959 202.201721 280.038961 209.18814 271.985823 
C 216.174559 263.932685 221.66234 254.692857 225.391028 244.704865 
C 229.119717 234.716874 231.029377 224.141272 231.029375 213.479983 
L 141.749375 213.48 
L 217.08387 165.567243 
z
" style="fill:#1f77b4;"/>
   </g>
   <g id="matplotlib.axis_1"/>
   <g id="matplotlib.axis_2">
    <g id="ytick_1">
     <g id="line2d_1">
      <defs>
       <path d="M 0 0 
L -2 0 
" id="m6093b12f09" style="stroke:#000000;stroke-width:0.6;"/>
      </defs>
      <g>
       <use style="stroke:#000000;stroke-width:0.6;" x="30.149375" xlink:href="#m6093b12f09" y="302.76"/>
      </g>
     </g>
    </g>
    <g id="ytick_2">
     <g id="line2d_2">
      <g>
       <use style="stroke:#000000;stroke-width:0.6;" x="30.149375" xlink:href="#m6093b12f09" y="258.12"/>
      </g>
     </g>
    </g>
    <g id="ytick_3">
     <g id="line2d_3">
      <g>
       <use style="stroke:#000000;stroke-width:0.6;" x="30.149375" xlink:href="#m6093b12f09" y="213.48"/>
      </g>
     </g>
    </g>
    <g id="ytick_4">
     <g id="line2d_4">
      <g>
       <use style="stroke:#000000;stroke-width:0.6;" x="30.149375" xlink:href="#m6093b12f09" y="168.84"/>
      </g>
     </g>
    </g>
    <g id="ytick_5">
     <g id="line2d_5">
      <g>
       <use style="stroke:#000000;stroke-width:0.6;" x="30.149375" xlink:href="#m6093b12f09" y="124.2"/>
      </g>
     </g>
    </g>
    <g id="text_1">
     <!-- Net Worth (Billion USD) -->
     <defs>
      <path d="M 9.8125 72.90625 
L 23.09375 72.90625 
L 55.421875 11.921875 
L 55.421875 72.90625 
L 64.984375 72.90625 
L 64.984375 0 
L 51.703125 0 
L 19.390625 60.984375 
L 19.390625 0 
L 9.8125 0 
z
" id="DejaVuSans-78"/>
      <path d="M 56.203125 29.59375 
L 56.203125 25.203125 
L 14.890625 25.203125 
Q 15.484375 15.921875 20.484375 11.0625 
Q 25.484375 6.203125 34.421875 6.203125 
Q 39.59375 6.203125 44.453125 7.46875 
Q 49.3125 8.734375 54.109375 11.28125 
L 54.109375 2.78125 
Q 49.265625 0.734375 44.1875 -0.34375 
Q 39.109375 -1.421875 33.890625 -1.421875 
Q 20.796875 -1.421875 13.15625 6.1875 
Q 5.515625 13.8125 5.515625 26.8125 
Q 5.515625 40.234375 12.765625 48.109375 
Q 20.015625 56 32.328125 56 
Q 43.359375 56 49.78125 48.890625 
Q 56.203125 41.796875 56.203125 29.59375 
z
M 47.21875 32.234375 
Q 47.125 39.59375 43.09375 43.984375 
Q 39.0625 48.390625 32.421875 48.390625 
Q 24.90625 48.390625 20.390625 44.140625 
Q 15.875 39.890625 15.1875 32.171875 
z
" id="DejaVuSans-101"/>
      <path d="M 18.3125 70.21875 
L 18.3125 54.6875 
L 36.8125 54.6875 
L 36.8125 47.703125 
L 18.3125 47.703125 
L 18.3125 18.015625 
Q 18.3125 11.328125 20.140625 9.421875 
Q 21.96875 7.515625 27.59375 7.515625 
L 36.8125 7.515625 
L 36.8125 0 
L 27.59375 0 
Q 17.1875 0 13.234375 3.875 
Q 9.28125 7.765625 9.28125 18.015625 
L 9.28125 47.703125 
L 2.6875 47.703125 
L 2.6875 54.6875 
L 9.28125 54.6875 
L 9.28125 70.21875 
z
" id="DejaVuSans-116"/>
      <path id="DejaVuSans-32"/>
      <path d="M 3.328125 72.90625 
L 13.28125 72.90625 
L 28.609375 11.28125 
L 43.890625 72.90625 
L 54.984375 72.90625 
L 70.3125 11.28125 
L 85.59375 72.90625 
L 95.609375 72.90625 
L 77.296875 0 
L 64.890625 0 
L 49.515625 63.28125 
L 33.984375 0 
L 21.578125 0 
z
" id="DejaVuSans-87"/>
      <path d="M 30.609375 48.390625 
Q 23.390625 48.390625 19.1875 42.75 
Q 14.984375 37.109375 14.984375 27.296875 
Q 14.984375 17.484375 19.15625 11.84375 
Q 23.34375 6.203125 30.609375 6.203125 
Q 37.796875 6.203125 41.984375 11.859375 
Q 46.1875 17.53125 46.1875 27.296875 
Q 46.1875 37.015625 41.984375 42.703125 
Q 37.796875 48.390625 30.609375 48.390625 
z
M 30.609375 56 
Q 42.328125 56 49.015625 48.375 
Q 55.71875 40.765625 55.71875 27.296875 
Q 55.71875 13.875 49.015625 6.21875 
Q 42.328125 -1.421875 30.609375 -1.421875 
Q 18.84375 -1.421875 12.171875 6.21875 
Q 5.515625 13.875 5.515625 27.296875 
Q 5.515625 40.765625 12.171875 48.375 
Q 18.84375 56 30.609375 56 
z
" id="DejaVuSans-111"/>
      <path d="M 41.109375 46.296875 
Q 39.59375 47.171875 37.8125 47.578125 
Q 36.03125 48 33.890625 48 
Q 26.265625 48 22.1875 43.046875 
Q 18.109375 38.09375 18.109375 28.8125 
L 18.109375 0 
L 9.078125 0 
L 9.078125 54.6875 
L 18.109375 54.6875 
L 18.109375 46.1875 
Q 20.953125 51.171875 25.484375 53.578125 
Q 30.03125 56 36.53125 56 
Q 37.453125 56 38.578125 55.875 
Q 39.703125 55.765625 41.0625 55.515625 
z
" id="DejaVuSans-114"/>
      <path d="M 54.890625 33.015625 
L 54.890625 0 
L 45.90625 0 
L 45.90625 32.71875 
Q 45.90625 40.484375 42.875 44.328125 
Q 39.84375 48.1875 33.796875 48.1875 
Q 26.515625 48.1875 22.3125 43.546875 
Q 18.109375 38.921875 18.109375 30.90625 
L 18.109375 0 
L 9.078125 0 
L 9.078125 75.984375 
L 18.109375 75.984375 
L 18.109375 46.1875 
Q 21.34375 51.125 25.703125 53.5625 
Q 30.078125 56 35.796875 56 
Q 45.21875 56 50.046875 50.171875 
Q 54.890625 44.34375 54.890625 33.015625 
z
" id="DejaVuSans-104"/>
      <path d="M 31 75.875 
Q 24.46875 64.65625 21.28125 53.65625 
Q 18.109375 42.671875 18.109375 31.390625 
Q 18.109375 20.125 21.3125 9.0625 
Q 24.515625 -2 31 -13.1875 
L 23.1875 -13.1875 
Q 15.875 -1.703125 12.234375 9.375 
Q 8.59375 20.453125 8.59375 31.390625 
Q 8.59375 42.28125 12.203125 53.3125 
Q 15.828125 64.359375 23.1875 75.875 
z
" id="DejaVuSans-40"/>
      <path d="M 19.671875 34.8125 
L 19.671875 8.109375 
L 35.5 8.109375 
Q 43.453125 8.109375 47.28125 11.40625 
Q 51.125 14.703125 51.125 21.484375 
Q 51.125 28.328125 47.28125 31.5625 
Q 43.453125 34.8125 35.5 34.8125 
z
M 19.671875 64.796875 
L 19.671875 42.828125 
L 34.28125 42.828125 
Q 41.5 42.828125 45.03125 45.53125 
Q 48.578125 48.25 48.578125 53.8125 
Q 48.578125 59.328125 45.03125 62.0625 
Q 41.5 64.796875 34.28125 64.796875 
z
M 9.8125 72.90625 
L 35.015625 72.90625 
Q 46.296875 72.90625 52.390625 68.21875 
Q 58.5 63.53125 58.5 54.890625 
Q 58.5 48.1875 55.375 44.234375 
Q 52.25 40.28125 46.1875 39.3125 
Q 53.46875 37.75 57.5 32.78125 
Q 61.53125 27.828125 61.53125 20.40625 
Q 61.53125 10.640625 54.890625 5.3125 
Q 48.25 0 35.984375 0 
L 9.8125 0 
z
" id="DejaVuSans-66"/>
      <path d="M 9.421875 54.6875 
L 18.40625 54.6875 
L 18.40625 0 
L 9.421875 0 
z
M 9.421875 75.984375 
L 18.40625 75.984375 
L 18.40625 64.59375 
L 9.421875 64.59375 
z
" id="DejaVuSans-105"/>
      <path d="M 9.421875 75.984375 
L 18.40625 75.984375 
L 18.40625 0 
L 9.421875 0 
z
" id="DejaVuSans-108"/>
      <path d="M 54.890625 33.015625 
L 54.890625 0 
L 45.90625 0 
L 45.90625 32.71875 
Q 45.90625 40.484375 42.875 44.328125 
Q 39.84375 48.1875 33.796875 48.1875 
Q 26.515625 48.1875 22.3125 43.546875 
Q 18.109375 38.921875 18.109375 30.90625 
L 18.109375 0 
L 9.078125 0 
L 9.078125 54.6875 
L 18.109375 54.6875 
L 18.109375 46.1875 
Q 21.34375 51.125 25.703125 53.5625 
Q 30.078125 56 35.796875 56 
Q 45.21875 56 50.046875 50.171875 
Q 54.890625 44.34375 54.890625 33.015625 
z
" id="DejaVuSans-110"/>
      <path d="M 8.6875 72.90625 
L 18.609375 72.90625 
L 18.609375 28.609375 
Q 18.609375 16.890625 22.84375 11.734375 
Q 27.09375 6.59375 36.625 6.59375 
Q 46.09375 6.59375 50.34375 11.734375 
Q 54.59375 16.890625 54.59375 28.609375 
L 54.59375 72.90625 
L 64.5 72.90625 
L 64.5 27.390625 
Q 64.5 13.140625 57.4375 5.859375 
Q 50.390625 -1.421875 36.625 -1.421875 
Q 22.796875 -1.421875 15.734375 5.859375 
Q 8.6875 13.140625 8.6875 27.390625 
z
" id="DejaVuSans-85"/>
      <path d="M 53.515625 70.515625 
L 53.515625 60.890625 
Q 47.90625 63.578125 42.921875 64.890625 
Q 37.9375 66.21875 33.296875 66.21875 
Q 25.25 66.21875 20.875 63.09375 
Q 16.5 59.96875 16.5 54.203125 
Q 16.5 49.359375 19.40625 46.890625 
Q 22.3125 44.4375 30.421875 42.921875 
L 36.375 41.703125 
Q 47.40625 39.59375 52.65625 34.296875 
Q 57.90625 29 57.90625 20.125 
Q 57.90625 9.515625 50.796875 4.046875 
Q 43.703125 -1.421875 29.984375 -1.421875 
Q 24.8125 -1.421875 18.96875 -0.25 
Q 13.140625 0.921875 6.890625 3.21875 
L 6.890625 13.375 
Q 12.890625 10.015625 18.65625 8.296875 
Q 24.421875 6.59375 29.984375 6.59375 
Q 38.421875 6.59375 43.015625 9.90625 
Q 47.609375 13.234375 47.609375 19.390625 
Q 47.609375 24.75 44.3125 27.78125 
Q 41.015625 30.8125 33.5 32.328125 
L 27.484375 33.5 
Q 16.453125 35.6875 11.515625 40.375 
Q 6.59375 45.0625 6.59375 53.421875 
Q 6.59375 63.09375 13.40625 68.65625 
Q 20.21875 74.21875 32.171875 74.21875 
Q 37.3125 74.21875 42.625 73.28125 
Q 47.953125 72.359375 53.515625 70.515625 
z
" id="DejaVuSans-83"/>
      <path d="M 19.671875 64.796875 
L 19.671875 8.109375 
L 31.59375 8.109375 
Q 46.6875 8.109375 53.6875 14.9375 
Q 60.6875 21.78125 60.6875 36.53125 
Q 60.6875 51.171875 53.6875 57.984375 
Q 46.6875 64.796875 31.59375 64.796875 
z
M 9.8125 72.90625 
L 30.078125 72.90625 
Q 51.265625 72.90625 61.171875 64.09375 
Q 71.09375 55.28125 71.09375 36.53125 
Q 71.09375 17.671875 61.125 8.828125 
Q 51.171875 0 30.078125 0 
L 9.8125 0 
z
" id="DejaVuSans-68"/>
      <path d="M 8.015625 75.875 
L 15.828125 75.875 
Q 23.140625 64.359375 26.78125 53.3125 
Q 30.421875 42.28125 30.421875 31.390625 
Q 30.421875 20.453125 26.78125 9.375 
Q 23.140625 -1.703125 15.828125 -13.1875 
L 8.015625 -13.1875 
Q 14.5 -2 17.703125 9.0625 
Q 20.90625 20.125 20.90625 31.390625 
Q 20.90625 42.671875 17.703125 53.65625 
Q 14.5 64.65625 8.015625 75.875 
z
" id="DejaVuSans-41"/>
     </defs>
     <g transform="translate(17.837813 295.013594)rotate(-90)scale(0.14 -0.14)">
      <use xlink:href="#DejaVuSans-78"/>
      <use x="74.804688" xlink:href="#DejaVuSans-101"/>
      <use x="136.328125" xlink:href="#DejaVuSans-116"/>
      <use x="175.537109" xlink:href="#DejaVuSans-32"/>
      <use x="207.324219" xlink:href="#DejaVuSans-87"/>
      <use x="300.326172" xlink:href="#DejaVuSans-111"/>
      <use x="361.507812" xlink:href="#DejaVuSans-114"/>
      <use x="402.621094" xlink:href="#DejaVuSans-116"/>
      <use x="441.830078" xlink:href="#DejaVuSans-104"/>
      <use x="505.208984" xlink:href="#DejaVuSans-32"/>
      <use x="536.996094" xlink:href="#DejaVuSans-40"/>
      <use x="576.009766" xlink:href="#DejaVuSans-66"/>
      <use x="644.613281" xlink:href="#DejaVuSans-105"/>
      <use x="672.396484" xlink:href="#DejaVuSans-108"/>
      <use x="700.179688" xlink:href="#DejaVuSans-108"/>
      <use x="727.962891" xlink:href="#DejaVuSans-105"/>
      <use x="755.746094" xlink:href="#DejaVuSans-111"/>
      <use x="816.927734" xlink:href="#DejaVuSans-110"/>
      <use x="880.306641" xlink:href="#DejaVuSans-32"/>
      <use x="912.09375" xlink:href="#DejaVuSans-85"/>
      <use x="985.287109" xlink:href="#DejaVuSans-83"/>
      <use x="1048.763672" xlink:href="#DejaVuSans-68"/>
      <use x="1125.765625" xlink:href="#DejaVuSans-41"/>
     </g>
    </g>
   </g>
   <g id="text_2">
    <!-- F -->
    <defs>
     <path d="M 9.8125 72.90625 
L 51.703125 72.90625 
L 51.703125 64.59375 
L 19.671875 64.59375 
L 19.671875 43.109375 
L 48.578125 43.109375 
L 48.578125 34.8125 
L 19.671875 34.8125 
L 19.671875 0 
L 9.8125 0 
z
" id="DejaVuSans-70"/>
    </defs>
    <g transform="translate(236.044408 189.897577)scale(0.14 -0.14)">
     <use xlink:href="#DejaVuSans-70"/>
    </g>
   </g>
   <g id="text_3">
    <!-- M -->
    <defs>
     <path d="M 9.8125 72.90625 
L 24.515625 72.90625 
L 43.109375 23.296875 
L 61.8125 72.90625 
L 76.515625 72.90625 
L 76.515625 0 
L 66.890625 0 
L 66.890625 64.015625 
L 48.09375 14.015625 
L 38.1875 14.015625 
L 19.390625 64.015625 
L 19.390625 0 
L 9.8125 0 
z
" id="DejaVuSans-77"/>
    </defs>
    <g transform="translate(35.37497 244.788682)scale(0.14 -0.14)">
     <use xlink:href="#DejaVuSans-77"/>
    </g>
   </g>
  </g>
  <g id="axes_2">
   <g id="patch_4">
    <path d="M 565.829375 213.48 
C 565.829375 202.170422 563.680407 190.963158 559.497045 180.455731 
C 555.313683 169.948303 549.171619 160.330826 541.398318 152.116061 
L 476.549375 213.48 
L 565.829375 213.48 
z
" style="fill:#ff0000;"/>
   </g>
   <g id="patch_5">
    <path d="M 541.398318 152.116061 
C 534.317068 144.63265 525.993609 138.431138 516.797187 133.786637 
C 507.600765 129.142137 497.669414 126.12436 487.443708 124.86718 
C 477.218003 123.61 466.851424 124.132288 456.803857 126.410873 
C 446.75629 128.689458 437.178542 132.69014 428.495501 138.235441 
C 419.812461 143.780742 412.154455 150.78743 405.86121 158.944674 
C 399.567965 167.101917 394.733939 176.287281 391.573578 186.093283 
C 388.413217 195.899285 386.973956 206.178743 387.319646 216.475639 
C 387.665335 226.772534 389.790786 236.932317 393.601708 246.504277 
C 397.41263 256.076238 402.851823 264.916707 409.677995 272.633503 
C 416.504166 280.350299 424.614859 286.827597 433.650265 291.778051 
C 442.685671 296.728504 452.510175 300.077811 462.68794 301.677387 
C 472.865706 303.276963 483.243971 303.1028 493.362335 301.162625 
C 503.480698 299.22245 513.187289 295.545384 522.051502 290.294548 
C 530.915716 285.043713 538.804505 278.29792 545.367908 270.356427 
C 551.93131 262.414935 557.070813 253.396939 560.558416 243.702499 
C 564.046019 234.008058 565.829377 223.78268 565.829375 213.479983 
L 476.549375 213.48 
L 541.398318 152.116061 
z
" style="fill:#1f77b4;"/>
   </g>
   <g id="matplotlib.axis_3"/>
   <g id="matplotlib.axis_4">
    <g id="ytick_6">
     <g id="line2d_6">
      <g>
       <use style="stroke:#000000;stroke-width:0.6;" x="364.949375" xlink:href="#m6093b12f09" y="302.76"/>
      </g>
     </g>
    </g>
    <g id="ytick_7">
     <g id="line2d_7">
      <g>
       <use style="stroke:#000000;stroke-width:0.6;" x="364.949375" xlink:href="#m6093b12f09" y="258.12"/>
      </g>
     </g>
    </g>
    <g id="ytick_8">
     <g id="line2d_8">
      <g>
       <use style="stroke:#000000;stroke-width:0.6;" x="364.949375" xlink:href="#m6093b12f09" y="213.48"/>
      </g>
     </g>
    </g>
    <g id="ytick_9">
     <g id="line2d_9">
      <g>
       <use style="stroke:#000000;stroke-width:0.6;" x="364.949375" xlink:href="#m6093b12f09" y="168.84"/>
      </g>
     </g>
    </g>
    <g id="ytick_10">
     <g id="line2d_10">
      <g>
       <use style="stroke:#000000;stroke-width:0.6;" x="364.949375" xlink:href="#m6093b12f09" y="124.2"/>
      </g>
     </g>
    </g>
   </g>
   <g id="text_4">
    <!-- F -->
    <g transform="translate(567.791812 181.016429)scale(0.14 -0.14)">
     <use xlink:href="#DejaVuSans-70"/>
    </g>
   </g>
   <g id="text_5">
    <!-- M -->
    <g transform="translate(373.227566 253.66983)scale(0.14 -0.14)">
     <use xlink:href="#DejaVuSans-77"/>
    </g>
   </g>
   <g id="legend_1">
    <g id="patch_6">
     <path d="M 486.349375 69.614688 
L 618.480937 69.614688 
Q 621.280937 69.614688 621.280937 66.814688 
L 621.280937 47.665313 
Q 621.280937 44.865313 618.480937 44.865313 
L 486.349375 44.865313 
Q 483.549375 44.865313 483.549375 47.665313 
L 483.549375 66.814688 
Q 483.549375 69.614688 486.349375 69.614688 
z
" style="fill:#ffffff;opacity:0.8;stroke:#cccccc;stroke-linejoin:miter;"/>
    </g>
    <g id="patch_7">
     <path d="M 489.149375 61.103125 
L 517.149375 61.103125 
L 517.149375 51.303125 
L 489.149375 51.303125 
z
" style="fill:#ff0000;"/>
    </g>
    <g id="text_6">
     <!-- F -->
     <g transform="translate(528.349375 61.103125)scale(0.14 -0.14)">
      <use xlink:href="#DejaVuSans-70"/>
     </g>
    </g>
    <g id="patch_8">
     <path d="M 564.401562 61.103125 
L 592.401562 61.103125 
L 592.401562 51.303125 
L 564.401562 51.303125 
z
" style="fill:#1f77b4;"/>
    </g>
    <g id="text_7">
     <!-- M -->
     <g transform="translate(603.601562 61.103125)scale(0.14 -0.14)">
      <use xlink:href="#DejaVuSans-77"/>
     </g>
    </g>
   </g>
  </g>
  <g id="text_8">
   <!-- Portion of Total Wealth -->
   <defs>
    <path d="M 19.671875 64.796875 
L 19.671875 37.40625 
L 32.078125 37.40625 
Q 38.96875 37.40625 42.71875 40.96875 
Q 46.484375 44.53125 46.484375 51.125 
Q 46.484375 57.671875 42.71875 61.234375 
Q 38.96875 64.796875 32.078125 64.796875 
z
M 9.8125 72.90625 
L 32.078125 72.90625 
Q 44.34375 72.90625 50.609375 67.359375 
Q 56.890625 61.8125 56.890625 51.125 
Q 56.890625 40.328125 50.609375 34.8125 
Q 44.34375 29.296875 32.078125 29.296875 
L 19.671875 29.296875 
L 19.671875 0 
L 9.8125 0 
z
" id="DejaVuSans-80"/>
    <path d="M 37.109375 75.984375 
L 37.109375 68.5 
L 28.515625 68.5 
Q 23.6875 68.5 21.796875 66.546875 
Q 19.921875 64.59375 19.921875 59.515625 
L 19.921875 54.6875 
L 34.71875 54.6875 
L 34.71875 47.703125 
L 19.921875 47.703125 
L 19.921875 0 
L 10.890625 0 
L 10.890625 47.703125 
L 2.296875 47.703125 
L 2.296875 54.6875 
L 10.890625 54.6875 
L 10.890625 58.5 
Q 10.890625 67.625 15.140625 71.796875 
Q 19.390625 75.984375 28.609375 75.984375 
z
" id="DejaVuSans-102"/>
    <path d="M -0.296875 72.90625 
L 61.375 72.90625 
L 61.375 64.59375 
L 35.5 64.59375 
L 35.5 0 
L 25.59375 0 
L 25.59375 64.59375 
L -0.296875 64.59375 
z
" id="DejaVuSans-84"/>
    <path d="M 34.28125 27.484375 
Q 23.390625 27.484375 19.1875 25 
Q 14.984375 22.515625 14.984375 16.5 
Q 14.984375 11.71875 18.140625 8.90625 
Q 21.296875 6.109375 26.703125 6.109375 
Q 34.1875 6.109375 38.703125 11.40625 
Q 43.21875 16.703125 43.21875 25.484375 
L 43.21875 27.484375 
z
M 52.203125 31.203125 
L 52.203125 0 
L 43.21875 0 
L 43.21875 8.296875 
Q 40.140625 3.328125 35.546875 0.953125 
Q 30.953125 -1.421875 24.3125 -1.421875 
Q 15.921875 -1.421875 10.953125 3.296875 
Q 6 8.015625 6 15.921875 
Q 6 25.140625 12.171875 29.828125 
Q 18.359375 34.515625 30.609375 34.515625 
L 43.21875 34.515625 
L 43.21875 35.40625 
Q 43.21875 41.609375 39.140625 45 
Q 35.0625 48.390625 27.6875 48.390625 
Q 23 48.390625 18.546875 47.265625 
Q 14.109375 46.140625 10.015625 43.890625 
L 10.015625 52.203125 
Q 14.9375 54.109375 19.578125 55.046875 
Q 24.21875 56 28.609375 56 
Q 40.484375 56 46.34375 49.84375 
Q 52.203125 43.703125 52.203125 31.203125 
z
" id="DejaVuSans-97"/>
   </defs>
   <g transform="translate(199.173594 20.877187)scale(0.18 -0.18)">
    <use xlink:href="#DejaVuSans-80"/>
    <use x="56.677734" xlink:href="#DejaVuSans-111"/>
    <use x="117.859375" xlink:href="#DejaVuSans-114"/>
    <use x="158.972656" xlink:href="#DejaVuSans-116"/>
    <use x="198.181641" xlink:href="#DejaVuSans-105"/>
    <use x="225.964844" xlink:href="#DejaVuSans-111"/>
    <use x="287.146484" xlink:href="#DejaVuSans-110"/>
    <use x="350.525391" xlink:href="#DejaVuSans-32"/>
    <use x="382.3125" xlink:href="#DejaVuSans-111"/>
    <use x="443.494141" xlink:href="#DejaVuSans-102"/>
    <use x="478.699219" xlink:href="#DejaVuSans-32"/>
    <use x="510.486328" xlink:href="#DejaVuSans-84"/>
    <use x="554.570312" xlink:href="#DejaVuSans-111"/>
    <use x="615.751953" xlink:href="#DejaVuSans-116"/>
    <use x="654.960938" xlink:href="#DejaVuSans-97"/>
    <use x="716.240234" xlink:href="#DejaVuSans-108"/>
    <use x="744.023438" xlink:href="#DejaVuSans-32"/>
    <use x="775.810547" xlink:href="#DejaVuSans-87"/>
    <use x="868.8125" xlink:href="#DejaVuSans-101"/>
    <use x="930.335938" xlink:href="#DejaVuSans-97"/>
    <use x="991.615234" xlink:href="#DejaVuSans-108"/>
    <use x="1019.398438" xlink:href="#DejaVuSans-116"/>
    <use x="1058.607422" xlink:href="#DejaVuSans-104"/>
   </g>
  </g>
 </g>
</svg>
